PathFileType	4	(X/Y/Z)	2014001\dynamic\2014001_C3_05.trc
DataRate	CameraRate	NumFrames	NumMarkers	Units	OrigDataRate	OrigDataStartFrame	OrigNumFrames
100.000000	100.000000	4	52	mm	100.000000	64	172
Frame#	Time	L_IAS			L_IPS			R_IPS			R_IAS			L_FTC			L_FLE			L_FME			L_FAX			L_TTC			L_FAL			L_TAM			L_FCC			L_FM1			L_FM2			L_FM5			R_FTC			R_FLE			R_FME			R_FAX			R_TTC			R_FAL			R_TAM			R_FCC			R_FM1			R_FM2			R_FM5			CV7			TV10			SXS			SJN			L_SIA			L_SRS			L_SAA			L_SAE			L_HLE			L_HME			L_UOA			L_RSP			L_UHE			L_HM2			L_HM5			R_SIA			R_SRS			R_SAA			R_SAE			R_HLE			R_HME			R_UOA			R_RSP			R_UHE			R_HM2			R_HM5			
		X1	Y1	Z1	X2	Y2	Z2	X3	Y3	Z3	X4	Y4	Z4	X5	Y5	Z5	X6	Y6	Z6	X7	Y7	Z7	X8	Y8	Z8	X9	Y9	Z9	X10	Y10	Z10	X11	Y11	Z11	X12	Y12	Z12	X13	Y13	Z13	X14	Y14	Z14	X15	Y15	Z15	X16	Y16	Z16	X17	Y17	Z17	X18	Y18	Z18	X19	Y19	Z19	X20	Y20	Z20	X21	Y21	Z21	X22	Y22	Z22	X23	Y23	Z23	X24	Y24	Z24	X25	Y25	Z25	X26	Y26	Z26	X27	Y27	Z27	X28	Y28	Z28	X29	Y29	Z29	X30	Y30	Z30	X31	Y31	Z31	X32	Y32	Z32	X33	Y33	Z33	X34	Y34	Z34	X35	Y35	Z35	X36	Y36	Z36	X37	Y37	Z37	X38	Y38	Z38	X39	Y39	Z39	X40	Y40	Z40	X41	Y41	Z41	X42	Y42	Z42	X43	Y43	Z43	X44	Y44	Z44	X45	Y45	Z45	X46	Y46	Z46	X47	Y47	Z47	X48	Y48	Z48	X49	Y49	Z49	X50	Y50	Z50	X51	Y51	Z51	X52	Y52	Z52	

65	0.64	340.7345275878907	856.3673706054692	607.105163574219	271.1463317871095	885.124633789063	425.602722167969	183.0831298828126	884.861694335938	425.7022094726565	101.2847900390626	851.6164550781255	602.228698730469	402.1192321777346	767.5397949218752	541.8082275390627	374.5557250976564	441.2573242187502	684.9346313476565	259.436981201172	439.8009338378909	705.1189575195315	378.2279663085939	377.4986877441407	682.8875732421877	333.186004638672	375.1213989257814	751.150329589844	342.7217102050782	61.43125152587893	738.6428833007815	256.9456481933595	77.23132324218753	764.825378417969	292.9549865722657	15.36091709136964	705.226745605469	283.735565185547	54.42184829711917	883.9551391601567	343.0989379882814	58.84008407592776	881.4243164062505	377.5517883300782	32.84400177001955	836.1788940429692	46.11457443237306	764.737731933594	489.1733093261721	79.306999206543	431.7603149414065	400.661560058594	198.2814788818361	408.580505371094	417.1386413574221	77.10224151611331	378.6469726562501	352.5450134277345	122.4255905151368	341.4021606445314	406.7608032226565	122.9229431152344	125.4368591308594	159.2544555664063	205.9748382568361	123.4807510375977	203.2994079589845	181.1120758056641	113.1492919921876	107.1971664428712	201.3653717041017	23.70493698120118	262.6190795898439	138.4417114257813	32.39783096313478	269.9490051269532	94.21137237548831	29.07049369812013	212.2149810791017	228.2624664306642	1350.824584960938	455.8821411132815	222.0096893310548	1118.103637695313	397.522644042969	244.2161102294923	1128.693115234375	631.126403808594	242.7221069335939	1288.890625	584.2242431640627	310.1500549316407	1153.669799804688	384.0574645996096	307.4855957031251	1285.921875	404.693542480469	421.8900451660159	1282.486083984375	460.3072204589846	415.6595153808596	1293.510009765625	502.6732482910159	485.4818115234377	1018.426818847657	434.1472167968752	406.7389221191409	985.0645141601567	425.8389282226565	451.1669006347659	992.4620971679692	406.1914062500002	491.521911621094	772.209838867188	472.9547119140627	541.9185791015627	790.2859497070317	412.7883911132815	507.6904602050784	683.5538330078127	469.1864013671877	546.5103759765627	718.2702636718752	383.3745422363282	107.7235717773438	1161.670654296875	403.750183105469	137.3963775634766	1286.214965820313	421.3618469238284	40.99157714843751	1287.801635742188	507.9162902832034	59.85087585449222	1294.586669921875	553.6519165039065	-45.34984970092775	998.5928344726567	571.7243652343752	25.35810470581056	968.8228149414067	539.3720703125002	-21.40758514404298	961.5591430664067	547.2183227539065	5.220404624938967	861.2797851562505	746.7212524414065	-60.39907455444339	834.2365722656255	711.943542480469	-5.667069911956789	808.776733398438	824.338500976563	-59.26779937744143	764.5026855468752	748.7923583984377	
66	0.65	342.8253784179689	858.261840820313	621.463562011719	272.4457092285157	886.2994995117192	439.8541564941409	184.1095733642579	885.3311157226567	439.9991455078127	103.6758346557618	851.8818969726567	616.8353271484377	404.1728820800784	769.554321289063	556.2832641601565	375.6989746093751	442.3144531250002	698.4285888671877	260.8619384765626	441.1670837402346	718.059265136719	379.5039367675782	378.404510498047	695.5349731445315	333.6406860351564	374.5677490234376	762.9538574218752	343.0904235839845	60.8046798706055	741.3469238281252	256.9576110839845	75.60675811767581	767.1604003906252	293.6128540039064	16.06672477722169	705.3872680664065	282.3163146972657	47.96504974365236	886.041381835938	342.0709838867189	52.58592224121097	884.6952514648442	377.6636047363282	28.97621536254884	837.825317382813	48.30542755126956	764.2088012695315	504.2872314453127	78.95397949218753	431.3579101562502	417.2483825683596	197.9464416503907	406.8424987792971	434.7105712890627	76.6026306152344	379.5886230468751	367.9898376464845	120.7637557983399	340.4761657714845	421.9251098632815	121.704330444336	132.2854003906251	167.4220733642579	204.0828094482423	128.1154022216797	211.8886260986329	180.3596343994141	123.1106414794922	116.0309982299805	201.6036376953126	24.60915756225587	262.9364013671876	138.9431762695313	32.4423065185547	270.0124816894532	94.66458129882815	31.65880584716798	214.1264190673829	230.4035186767579	1351.389892578125	467.9178161621096	224.1624298095704	1118.192626953125	411.0702209472659	246.1260528564454	1130.451293945313	644.5876464843752	244.5238342285157	1290.30224609375	596.6314697265627	312.7673339843751	1153.86376953125	397.5626525878909	309.8699951171876	1286.2412109375	417.4028320312502	424.142517089844	1283.288330078125	473.4821777343752	417.674743652344	1294.484008789063	515.736022949219	487.7216491699221	1018.773010253907	449.851745605469	408.9783935546877	985.5576171875005	441.0036315917971	453.6570129394534	992.7025756835942	421.8002929687502	492.777038574219	772.8725585937505	490.500671386719	543.8013916015627	790.3957519531255	430.6763610839846	508.6097106933596	684.0979003906252	487.2386779785159	548.473571777344	718.1387939453127	401.7691955566409	110.2774734497071	1161.780639648438	416.2630310058596	139.7176055908204	1286.4833984375	433.3468017578127	43.05885696411134	1288.375	519.239196777344	61.46482086181643	1295.505615234375	565.1291503906252	-41.97565841674806	998.602416992188	580.4248046875002	29.17614364624025	969.5784301757817	548.337097167969	-17.76156234741212	962.1103515625005	555.3883056640627	8.04432582855225	857.8220214843755	753.3484497070315	-57.56909561157229	831.467163085938	717.584167480469	-3.058139562606813	803.696899414063	829.582153320313	-56.53265380859378	761.024108886719	752.9803466796877	
67	0.66	345.0366210937501	860.2337036132817	635.5964965820315	273.7930603027345	887.5888671875005	453.9393615722659	185.1868743896485	885.9179077148442	454.110778808594	106.1927947998047	852.367065429688	631.2401123046877	406.2757568359377	771.5979614257817	570.5007934570315	376.8115234375001	443.2189025878909	711.2851562500002	262.1517333984376	442.3264160156252	730.3002929687502	380.7527770996095	379.2225646972657	707.5488891601565	334.0597229003907	373.9911193847657	774.070190429688	343.431365966797	60.50335311889651	743.872741699219	256.9272460937501	74.39408874511722	769.2323608398442	294.294891357422	16.91058158874512	705.6831054687502	280.8300170898439	42.46466445922853	887.7714233398442	341.0126037597657	47.39596557617189	887.6613769531255	377.8644409179689	26.05977249145509	839.3057250976567	50.57397079467776	763.762634277344	519.445739746094	78.49440765380862	430.7752990722659	434.9315185546877	197.4254760742189	404.8649597167971	453.5451965332034	75.9755554199219	380.4427490234376	384.6611633300784	118.9382019042969	339.4595031738282	438.2979431152346	120.5567779541016	139.5487518310547	176.9617462158204	202.2170410156251	132.9823760986329	221.788543701172	179.7435455322266	133.5833129882813	126.4159164428712	201.7202301025392	26.03651237487794	263.898895263672	139.3745727539063	32.89503860473634	270.6145019531251	95.135368347168	35.04819488525392	216.7746582031251	232.4720916748048	1352.159057617188	479.9391784667971	226.2911224365236	1118.524169921875	424.5444641113284	247.9698181152345	1132.412719726563	658.0186157226565	246.2583007812501	1291.930053710938	609.0327758789065	315.3676757812501	1154.297607421875	411.0259094238284	312.1909790039064	1286.771240234375	430.1054687500002	426.3291625976565	1284.341918945313	486.6637268066409	419.6070251464846	1295.70751953125	528.8232421875002	489.9687194824221	1019.359191894532	465.7461547851565	411.2512512207034	986.2793579101567	456.2635192871096	456.2040710449221	993.1380004882817	437.554138183594	493.925720214844	773.840698242188	508.5668029785159	545.6646728515627	790.7081909179692	449.150085449219	509.3829345703127	684.951354980469	506.0095825195315	550.4283447265627	718.1541748046877	420.8653564453127	112.7548599243165	1162.114135742188	428.7748107910159	141.9751892089844	1286.925048828125	445.3823242187502	45.0760841369629	1289.1748046875	530.5381469726565	63.01270675659183	1296.648559570313	576.574890136719	-38.5513153076172	998.827758789063	588.8707275390627	33.09032058715822	970.6004028320317	557.166198730469	-13.99560070037843	962.9140014648442	563.3610839843752	10.83368492126465	854.299682617188	759.4976806640627	-54.76744461059573	828.741333007813	722.6475219726565	-0.5218808650970461	798.367797851563	834.1679687500005	-53.84814453125003	757.5440063476565	756.3985595703127	
68	0.67	347.3298645019532	862.213500976563	649.4726562500002	275.2177734375001	888.9562988281255	467.8113708496096	186.3651885986329	886.6036987304692	467.9797973632815	108.7724838256837	853.0586547851567	645.3440551757815	408.3982238769534	773.6079101562505	584.441833496094	377.8543701171876	443.9275512695315	723.4221801757815	263.2567749023439	443.2293701171877	741.749938964844	381.9243469238282	379.9013977050782	718.8228759765627	334.4140930175782	373.3546142578126	784.4251098632817	343.6936340332032	60.470329284668	746.1925048828127	256.8218383789064	73.53846740722659	771.0455932617192	294.9401245117189	17.8105697631836	706.1215820312502	279.3215637207032	37.94691085815431	889.179565429688	339.9521484375001	43.30296707153322	890.2966918945317	378.1141967773439	24.06248855590822	840.6165161132817	52.90062332153323	763.4109497070315	534.5336914062502	77.94992828369143	430.0122680664065	453.6999206542971	196.7433471679689	402.6975097656252	473.6033020019534	75.2347106933594	381.1836547851564	402.5870056152346	117.0321426391602	338.3579711914064	455.8842468261721	119.524040222168	147.1786499023438	187.9449462890626	200.4503784179689	138.0616607666016	233.0477600097657	179.2940979003907	144.4283905029297	138.3806762695313	201.6177825927736	28.04580497741701	265.8231811523439	139.6372528076172	33.86840820312501	272.0734252929689	95.56675720214847	39.32076644897462	220.4045867919923	234.4472961425782	1353.110961914063	491.9558410644534	228.3993682861329	1119.093139648438	437.9043579101565	249.7285461425782	1134.5107421875	671.3799438476565	247.9091644287111	1293.720703125	621.4238281250002	317.9319152832032	1154.9619140625	424.4085693359377	314.4331359863282	1287.499389648438	442.7924804687502	428.4383544921877	1285.615600585938	499.8439025878909	421.442321777344	1297.147583007813	541.9296875000002	492.2113342285159	1020.155395507813	481.8098754882815	413.550476074219	987.1929321289067	471.5926513671877	458.7965087890627	993.7361450195317	453.4302673339846	494.9643859863284	775.091186523438	527.1237792968752	547.4978027343752	791.2073364257817	468.1866149902346	510.026550292969	686.1001586914065	525.477478027344	552.3721923828127	718.3101806640627	440.6428833007815	115.148422241211	1162.660888671875	441.2529602050784	144.1549377441407	1287.531494140625	457.4603576660159	47.02518844604494	1290.162109375	541.8298339843752	64.48947906494143	1297.959838867188	588.002868652344	-35.11009597778322	999.238647460938	597.0908813476565	37.04977416992189	971.8428344726567	565.8850708007815	-10.1482515335083	963.9325561523442	571.1794433593752	13.56626224517823	850.7275390625005	765.1918945312502	-52.00739669799808	826.0681152343755	727.177185058594	1.934423804283143	792.8219604492192	838.123657226563	-51.21348953247073	754.0845947265627	759.0938110351565	
